<svg xmlns="http://www.w3.org/2000/svg" viewBox="0 0 64 64">
  <rect x="1" y="1" width="62" height="62" rx="15" fill="#0b0c0e"/><rect x="1.75" y="1.75" width="60.5" height="60.5" rx="14.25" fill="none" stroke="#26282d" stroke-width="1.5"/>
  <g transform="rotate(-20.0 32.0 31)" fill="none"><ellipse cx="32.0" cy="31" rx="28" ry="11.0" stroke="#c6f24e" stroke-width="5.6"/></g>
  <g transform="translate(32.0,29) scale(0.8) translate(-27.5,-32)" fill="none" stroke="#ffffff" stroke-width="6.2" stroke-linecap="round" stroke-linejoin="round"><path d="M12.5 17 L19.5 31 L26.5 17"/><path d="M19.5 31 L19.5 47"/><path d="M35.5 17 L35.5 47"/><path d="M35.5 17 H41 A7 7 0 0 1 41 31 H35.5"/><path d="M35.5 31 H42.5 A8 8 0 0 1 42.5 47 H35.5"/></g>
  <path d="M 53.86 31.00 L 53.37 31.44 L 52.87 31.88 L 52.34 32.33 L 51.79 32.77 L 51.22 33.20 L 50.64 33.64 L 50.03 34.07 L 49.41 34.50 L 48.77 34.93 L 48.12 35.35 L 47.44 35.77 L 46.76 36.19 L 46.05 36.60 L 45.34 37.00 L 44.61 37.40 L 43.87 37.79 L 43.12 38.17 L 42.35 38.55 L 41.58 38.92 L 40.79 39.28 L 40.00 39.64 L 39.20 39.98 L 38.40 40.32 L 37.58 40.65 L 36.76 40.96 L 35.94 41.27 L 35.11 41.57 L 34.28 41.86 L 33.45 42.13 L 32.61 42.40 L 31.78 42.65 L 30.94 42.90 L 30.11 43.13 L 29.28 43.35 L 28.45 43.56 L 27.62 43.75 L 26.80 43.93 L 25.99 44.10 L 25.18 44.26 L 24.37 44.40 L 23.58 44.53 L 22.79 44.65 L 22.01 44.75 L 21.24 44.84 L 20.48 44.92 L 19.74 44.98 L 19.00 45.03 L 18.28 45.06 L 17.57 45.08 L 16.88 45.09 L 16.20 45.08 L 15.54 45.06 L 14.89 45.03 L 14.26 44.98 L 13.64 44.92 L 13.05 44.84 L 12.47 44.75 L 11.92 44.65 L 11.38 44.53 L 10.86 44.40 L 10.37 44.26 L 9.89 44.10 L 9.44 43.93 L 9.01 43.75 L 8.60 43.56 L 8.22 43.35 L 7.86 43.13 L 7.52 42.90 L 7.21 42.65 L 6.92 42.40 L 6.65 42.13 L 6.42 41.86 L 6.20 41.57 L 6.01 41.27 L 5.85 40.96 L 5.71 40.65 L 5.60 40.32 L 5.52 39.98 L 5.46 39.64 L 5.43 39.28 L 5.42 38.92 L 5.44 38.55 L 5.49 38.17 L 5.56 37.79 L 5.66 37.40 L 5.78 37.00 L 5.93 36.60 L 6.11 36.19 L 6.31 35.77 L 6.54 35.35 L 6.79 34.93 L 7.07 34.50 L 7.37 34.07 L 7.70 33.64 L 8.05 33.20 L 8.42 32.77 L 8.82 32.33 L 9.24 31.88 L 9.68 31.44 L 10.14 31.00" fill="none" stroke="#0b0c0e"   stroke-width="10.2" stroke-linecap="round"/><path d="M 53.86 31.00 L 53.37 31.44 L 52.87 31.88 L 52.34 32.33 L 51.79 32.77 L 51.22 33.20 L 50.64 33.64 L 50.03 34.07 L 49.41 34.50 L 48.77 34.93 L 48.12 35.35 L 47.44 35.77 L 46.76 36.19 L 46.05 36.60 L 45.34 37.00 L 44.61 37.40 L 43.87 37.79 L 43.12 38.17 L 42.35 38.55 L 41.58 38.92 L 40.79 39.28 L 40.00 39.64 L 39.20 39.98 L 38.40 40.32 L 37.58 40.65 L 36.76 40.96 L 35.94 41.27 L 35.11 41.57 L 34.28 41.86 L 33.45 42.13 L 32.61 42.40 L 31.78 42.65 L 30.94 42.90 L 30.11 43.13 L 29.28 43.35 L 28.45 43.56 L 27.62 43.75 L 26.80 43.93 L 25.99 44.10 L 25.18 44.26 L 24.37 44.40 L 23.58 44.53 L 22.79 44.65 L 22.01 44.75 L 21.24 44.84 L 20.48 44.92 L 19.74 44.98 L 19.00 45.03 L 18.28 45.06 L 17.57 45.08 L 16.88 45.09 L 16.20 45.08 L 15.54 45.06 L 14.89 45.03 L 14.26 44.98 L 13.64 44.92 L 13.05 44.84 L 12.47 44.75 L 11.92 44.65 L 11.38 44.53 L 10.86 44.40 L 10.37 44.26 L 9.89 44.10 L 9.44 43.93 L 9.01 43.75 L 8.60 43.56 L 8.22 43.35 L 7.86 43.13 L 7.52 42.90 L 7.21 42.65 L 6.92 42.40 L 6.65 42.13 L 6.42 41.86 L 6.20 41.57 L 6.01 41.27 L 5.85 40.96 L 5.71 40.65 L 5.60 40.32 L 5.52 39.98 L 5.46 39.64 L 5.43 39.28 L 5.42 38.92 L 5.44 38.55 L 5.49 38.17 L 5.56 37.79 L 5.66 37.40 L 5.78 37.00 L 5.93 36.60 L 6.11 36.19 L 6.31 35.77 L 6.54 35.35 L 6.79 34.93 L 7.07 34.50 L 7.37 34.07 L 7.70 33.64 L 8.05 33.20 L 8.42 32.77 L 8.82 32.33 L 9.24 31.88 L 9.68 31.44 L 10.14 31.00" fill="none" stroke="#c6f24e" stroke-width="5.6" stroke-linecap="round"/>
</svg>